<svg xmlns="http://www.w3.org/2000/svg" viewBox="0 0 1639.856 366.611"><title>black</title><g id="Layer_1" data-name="Layer 1"><path d="M450.883,771.69H368.655V628.438H246.844V771.69h-82.7V428.64h82.7V564.823H368.655V428.64h82.228Z" transform="translate(-164.144 -409.791)"/><path d="M643.142,771.69q-4.242-7.776-7.54-22.854Q613.69,776.4,574.343,776.4q-36.048,0-61.259-21.792t-25.21-54.781q0-41.469,30.629-62.673t89.061-21.2h24.5v-13.5q0-35.275-30.394-35.275-28.273,0-28.273,27.939H494q0-36.942,31.454-60.007t80.225-23.065q48.772,0,77.045,23.8t28.98,65.264V713.965q.468,35.106,10.838,53.72v4.005Zm-49.714-51.835q14.842,0,24.621-6.361t14.019-14.372V658.361h-23.09q-41.47,0-41.468,37.227,0,10.838,7.3,17.555T593.428,719.855Z" transform="translate(-164.144 -409.791)"/><path d="M833.768,627.235V516.759H754.34v110.16c0,1.2.047,2.4.094,3.566H834A18.145,18.145,0,0,1,833.768,627.235Zm70.677-110.476V630.485H984.3V516.759Z" transform="translate(-164.144 -409.791)"/><path d="M1161.25,700.064q0-10.123-10.6-16.257t-40.29-12.723q-29.687-6.6-49.007-17.317T1031.9,627.732q-10.136-15.312-10.131-35.107,0-35.1,28.98-57.842t75.867-22.737q50.417,0,81.05,22.855t30.629,60.081h-79.636q0-30.627-32.279-30.63-12.49,0-20.969,6.951t-8.482,17.317q0,10.6,10.367,17.2t33.1,10.838a286.609,286.609,0,0,1,39.936,10.131q57.486,19.791,57.489,70.919,0,34.878-30.983,56.782T1126.616,776.4q-32.754,0-58.432-11.78t-40.054-32.044q-14.376-20.254-14.372-42.645h74.217q.468,17.67,11.781,25.8t28.98,8.131q16.257,0,24.386-6.6A21.1,21.1,0,0,0,1161.25,700.064Z" transform="translate(-164.144 -409.791)"/><path d="M1367.41,453.379v63.38h41.939v55.133H1367.41V688.519q0,14.373,5.184,20.027t20.5,5.655a116.458,116.458,0,0,0,19.791-1.414v56.782a146.522,146.522,0,0,1-44.766,6.833q-41,0-60.552-19.32t-19.556-58.667V571.892h-32.514V516.759h32.514v-63.38Z" transform="translate(-164.144 -409.791)"/><path d="M1524.327,771.69h-79.636v-361.9h79.636Z" transform="translate(-164.144 -409.791)"/><path d="M1696.559,776.4q-58.666,0-94.951-34.986t-36.284-91.066v-6.6q0-39.108,14.49-69.034t42.292-46.3q27.8-16.371,65.971-16.375,53.72,0,84.822,33.339t31.1,92.949V669.2H1646.138q4.242,21.441,18.613,33.692t37.227,12.252q37.695,0,58.9-26.388l36.284,42.881q-14.844,20.5-42.055,32.63A142.133,142.133,0,0,1,1696.559,776.4Zm-8.953-203.1q-34.873,0-41.468,46.18h80.108v-6.126q.468-19.085-9.66-29.569T1687.606,573.3Z" transform="translate(-164.144 -409.791)"/></g><g id="Layer_3" data-name="Layer 3"><rect x="589.856" y="288.106" width="230" height="73.326"/></g></svg>